# xmcd
#
# Track frame offsets:
#	150
#	15296
#	31795
#	44469
#	56205
#	69235
#	80460
#	93659
#	102734
#	115258
#
# Disc length: 1668 seconds
#
# Revision: 1
# Processed by: cddbd v1.5.1PL0 Copyright (c) Steve Scherf et al.
# Submitted via: audiograbber 1.83.01
#
DISCID=7d06820a
DTITLE=Glen Campbell - Oh Happy Day
DYEAR=1970
DGENRE=Gospel
TTITLE0=Oh Happy Day - 01 - Someone Above
TTITLE1=Oh Happy Day - 02 - Oh Happy Day
TTITLE2=Oh Happy Day - 03 - I Believe
TTITLE3=Oh Happy Day - 04 - He's Got The Whole World
TTITLE4=Oh Happy Day - 05 - You'll Never Walk Alone
TTITLE5=Oh Happy Day - 06 - One Pair Of Hands
TTITLE6=Oh Happy Day - 07 - He
TTITLE7=Oh Happy Day - 08 - People Get Ready
TTITLE8=Oh Happy Day - 09 - Angels In The Sky
TTITLE9=Oh Happy Day - 10 - Daddy Sang Bass
EXTD=
EXTT0=
EXTT1=
EXTT2=
EXTT3=
EXTT4=
EXTT5=
EXTT6=
EXTT7=
EXTT8=
EXTT9=
PLAYORDER=
